<?xml version="1.0" encoding="UTF-8" standalone="no"?>
<!DOCTYPE svg PUBLIC "-//W3C//DTD SVG 1.1//EN"
 "http://www.w3.org/Graphics/SVG/1.1/DTD/svg11.dtd">
<!-- Generated by graphviz version 2.43.0 (0)
 -->
<!-- Title: %3 Pages: 1 -->
<svg width="607pt" height="110pt"
 viewBox="0.00 0.00 607.00 109.50" xmlns="http://www.w3.org/2000/svg" xmlns:xlink="http://www.w3.org/1999/xlink">
<g id="graph0" class="graph" transform="scale(1 1) rotate(0) translate(4 105.5)">
<title>%3</title>
<!-- start -->
<g id="node1" class="node">
<title>start</title>
<text text-anchor="middle" x="25.5" y="-38.3" font-family="Times,serif" font-size="14.00">start</text>
</g>
<!-- 0 -->
<g id="node2" class="node">
<title>0</title>
<path fill="none" stroke="black" d="M186,-60C186,-60 99,-60 99,-60 93,-60 87,-54 87,-48 87,-48 87,-36 87,-36 87,-30 93,-24 99,-24 99,-24 186,-24 186,-24 192,-24 198,-30 198,-36 198,-36 198,-48 198,-48 198,-54 192,-60 186,-60"/>
<text text-anchor="middle" x="142.5" y="-38.3" font-family="Times,serif" font-size="14.00">br (x) 1 None</text>
</g>
<!-- start&#45;&gt;0 -->
<g id="edge1" class="edge">
<title>start&#45;&gt;0</title>
<path fill="none" stroke="black" d="M51.17,-42C58.75,-42 67.47,-42 76.44,-42"/>
<polygon fill="black" stroke="black" points="76.62,-45.5 86.62,-42 76.62,-38.5 76.62,-45.5"/>
</g>
<!-- end -->
<g id="node3" class="node">
<title>end</title>
<text text-anchor="middle" x="275.5" y="-86.3" font-family="Times,serif" font-size="14.00">end</text>
</g>
<!-- 0&#45;&gt;end -->
<g id="edge3" class="edge">
<title>0&#45;&gt;end</title>
<path fill="none" stroke="#cf0000" d="M192.65,-60.01C210.04,-66.38 229.08,-73.36 244.41,-78.97"/>
<polygon fill="#cf0000" stroke="#cf0000" points="243.3,-82.3 253.89,-82.45 245.71,-75.72 243.3,-82.3"/>
</g>
<!-- 1 -->
<g id="node4" class="node">
<title>1</title>
<path fill="none" stroke="black" d="M305,-60C305,-60 246,-60 246,-60 240,-60 234,-54 234,-48 234,-48 234,-36 234,-36 234,-30 240,-24 246,-24 246,-24 305,-24 305,-24 311,-24 317,-30 317,-36 317,-36 317,-48 317,-48 317,-54 311,-60 305,-60"/>
<text text-anchor="middle" x="275.5" y="-38.3" font-family="Times,serif" font-size="14.00">br (x) 2 0</text>
</g>
<!-- 0&#45;&gt;1 -->
<g id="edge2" class="edge">
<title>0&#45;&gt;1</title>
<path fill="none" stroke="#35c9a2" d="M198.3,-35.33C206.77,-35.2 215.49,-35.23 223.87,-35.41"/>
<polygon fill="#35c9a2" stroke="#35c9a2" points="223.78,-38.91 233.88,-35.7 223.98,-31.91 223.78,-38.91"/>
</g>
<!-- 1&#45;&gt;0 -->
<g id="edge4" class="edge">
<title>1&#45;&gt;0</title>
<path fill="none" stroke="#cf0000" d="M233.88,-48.3C225.79,-48.61 217.1,-48.76 208.43,-48.75"/>
<polygon fill="#cf0000" stroke="#cf0000" points="208.32,-45.25 198.3,-48.67 208.27,-52.25 208.32,-45.25"/>
</g>
<!-- 2 -->
<g id="node5" class="node">
<title>2</title>
<polygon fill="none" stroke="black" points="479,-60 353,-60 353,-24 479,-24 479,-60"/>
<text text-anchor="middle" x="416" y="-38.3" font-family="Times,serif" font-size="14.00">choice (0.5) 1 3</text>
</g>
<!-- 1&#45;&gt;2 -->
<g id="edge5" class="edge">
<title>1&#45;&gt;2</title>
<path fill="none" stroke="#35c9a2" d="M317.31,-35.78C325.33,-35.47 333.98,-35.29 342.69,-35.26"/>
<polygon fill="#35c9a2" stroke="#35c9a2" points="342.91,-38.76 352.92,-35.28 342.92,-31.76 342.91,-38.76"/>
</g>
<!-- 2&#45;&gt;1 -->
<g id="edge6" class="edge">
<title>2&#45;&gt;1</title>
<path fill="none" stroke="#35c9a2" d="M352.92,-48.72C344.43,-48.79 335.79,-48.73 327.53,-48.54"/>
<polygon fill="#35c9a2" stroke="#35c9a2" points="327.41,-45.03 317.31,-48.22 327.19,-52.03 327.41,-45.03"/>
</g>
<!-- 3 -->
<g id="node6" class="node">
<title>3</title>
<polygon fill="none" stroke="black" points="599,-38 515,-38 515,0 599,0 599,-38"/>
<text text-anchor="middle" x="557" y="-22.8" font-family="Times,serif" font-size="14.00">x := false</text>
<text text-anchor="middle" x="557" y="-7.8" font-family="Times,serif" font-size="14.00">goto 1</text>
</g>
<!-- 2&#45;&gt;3 -->
<g id="edge7" class="edge">
<title>2&#45;&gt;3</title>
<path fill="none" stroke="#cf0000" d="M479.18,-31.71C487.71,-30.3 496.39,-28.86 504.7,-27.49"/>
<polygon fill="#cf0000" stroke="#cf0000" points="505.32,-30.93 514.61,-25.85 504.17,-24.03 505.32,-30.93"/>
</g>
<!-- 3&#45;&gt;1 -->
<g id="edge8" class="edge">
<title>3&#45;&gt;1</title>
<path fill="none" stroke="black" d="M514.83,-13.68C473.58,-9.4 408.42,-5.51 353,-15 344.33,-16.49 335.33,-18.85 326.68,-21.59"/>
<polygon fill="black" stroke="black" points="325.47,-18.3 317.11,-24.8 327.7,-24.94 325.47,-18.3"/>
</g>
</g>
</svg>
