<?xml version="1.0" encoding="UTF-8" standalone="no"?>
<!DOCTYPE svg PUBLIC "-//W3C//DTD SVG 1.1//EN"
 "http://www.w3.org/Graphics/SVG/1.1/DTD/svg11.dtd">
<!-- Generated by graphviz version 2.43.0 (0)
 -->
<!-- Title: %3 Pages: 1 -->
<svg width="1215pt" height="238pt"
 viewBox="0.00 0.00 1215.00 238.00" xmlns="http://www.w3.org/2000/svg" xmlns:xlink="http://www.w3.org/1999/xlink">
<g id="graph0" class="graph" transform="scale(1 1) rotate(0) translate(4 234)">
<title>%3</title>
<!-- start -->
<g id="node1" class="node">
<title>start</title>
<text text-anchor="middle" x="25.5" y="-76.3" font-family="Times,serif" font-size="14.00">start</text>
</g>
<!-- 7 -->
<g id="node2" class="node">
<title>7</title>
<polygon fill="#e9e9e9" stroke="#e9e9e9" points="155,-99 87,-99 87,-61 155,-61 155,-99"/>
<text text-anchor="middle" x="121" y="-83.8" font-family="Times,serif" font-size="14.00">pc := 1</text>
<text text-anchor="middle" x="121" y="-68.8" font-family="Times,serif" font-size="14.00">goto 4</text>
</g>
<!-- start&#45;&gt;7 -->
<g id="edge1" class="edge">
<title>start&#45;&gt;7</title>
<path fill="none" stroke="black" d="M51.07,-80C58.92,-80 67.87,-80 76.65,-80"/>
<polygon fill="black" stroke="black" points="76.81,-83.5 86.81,-80 76.81,-76.5 76.81,-83.5"/>
</g>
<!-- 4 -->
<g id="node10" class="node">
<title>4</title>
<path fill="none" stroke="black" d="M367,-161C367,-161 203,-161 203,-161 197,-161 191,-155 191,-149 191,-149 191,-137 191,-137 191,-131 197,-125 203,-125 203,-125 367,-125 367,-125 373,-125 379,-131 379,-137 379,-137 379,-149 379,-149 379,-155 373,-161 367,-161"/>
<text text-anchor="middle" x="285" y="-139.3" font-family="Times,serif" font-size="14.00">br (not (pc = 0)) 9 None</text>
</g>
<!-- 7&#45;&gt;4 -->
<g id="edge13" class="edge">
<title>7&#45;&gt;4</title>
<path fill="none" stroke="black" d="M155.17,-92.9C176.18,-101.07 203.86,-111.84 228.18,-121.29"/>
<polygon fill="black" stroke="black" points="227.08,-124.62 237.67,-124.98 229.62,-118.1 227.08,-124.62"/>
</g>
<!-- end -->
<g id="node3" class="node">
<title>end</title>
<text text-anchor="middle" x="480" y="-139.3" font-family="Times,serif" font-size="14.00">end</text>
</g>
<!-- 0 -->
<g id="node4" class="node">
<title>0</title>
<polygon fill="none" stroke="black" points="683,-154 600,-154 600,-118 683,-118 683,-154"/>
<text text-anchor="middle" x="641.5" y="-132.3" font-family="Times,serif" font-size="14.00">br (x) 8 6</text>
</g>
<!-- 8 -->
<g id="node5" class="node">
<title>8</title>
<polygon fill="#e9e9e9" stroke="#e9e9e9" points="1207,-136 1139,-136 1139,-98 1207,-98 1207,-136"/>
<text text-anchor="middle" x="1173" y="-120.8" font-family="Times,serif" font-size="14.00">pc := 2</text>
<text text-anchor="middle" x="1173" y="-105.8" font-family="Times,serif" font-size="14.00">goto 4</text>
</g>
<!-- 0&#45;&gt;8 -->
<g id="edge2" class="edge">
<title>0&#45;&gt;8</title>
<path fill="none" stroke="#35c9a2" d="M683.17,-134.54C780.94,-131.03 1028.45,-122.15 1128.77,-118.55"/>
<polygon fill="#35c9a2" stroke="#35c9a2" points="1128.99,-122.05 1138.86,-118.19 1128.74,-115.05 1128.99,-122.05"/>
</g>
<!-- 6 -->
<g id="node6" class="node">
<title>6</title>
<polygon fill="#e9e9e9" stroke="#e9e9e9" points="813.5,-202 745.5,-202 745.5,-164 813.5,-164 813.5,-202"/>
<text text-anchor="middle" x="779.5" y="-186.8" font-family="Times,serif" font-size="14.00">pc := 0</text>
<text text-anchor="middle" x="779.5" y="-171.8" font-family="Times,serif" font-size="14.00">goto 4</text>
</g>
<!-- 0&#45;&gt;6 -->
<g id="edge3" class="edge">
<title>0&#45;&gt;6</title>
<path fill="none" stroke="#cf0000" d="M683.3,-150.1C699.92,-155.84 719.12,-162.48 735.91,-168.28"/>
<polygon fill="#cf0000" stroke="#cf0000" points="734.89,-171.63 745.48,-171.59 737.17,-165.02 734.89,-171.63"/>
</g>
<!-- 8&#45;&gt;4 -->
<g id="edge14" class="edge">
<title>8&#45;&gt;4</title>
<path fill="none" stroke="black" d="M1147.98,-136.17C1105.09,-168.41 1011.32,-230 921,-230 640.5,-230 640.5,-230 640.5,-230 531.17,-230 408.21,-190.49 339.63,-164.72"/>
<polygon fill="black" stroke="black" points="340.51,-161.31 329.92,-161.03 338.02,-167.85 340.51,-161.31"/>
</g>
<!-- 6&#45;&gt;4 -->
<g id="edge12" class="edge">
<title>6&#45;&gt;4</title>
<path fill="none" stroke="black" d="M745.33,-182.48C681.29,-181.2 536.27,-177 415,-164 406.65,-163.1 398.02,-162.03 389.36,-160.84"/>
<polygon fill="black" stroke="black" points="389.59,-157.34 379.2,-159.41 388.61,-164.27 389.59,-157.34"/>
</g>
<!-- 1 -->
<g id="node7" class="node">
<title>1</title>
<polygon fill="none" stroke="black" points="821,-36 738,-36 738,0 821,0 821,-36"/>
<text text-anchor="middle" x="779.5" y="-14.3" font-family="Times,serif" font-size="14.00">br (x) 2 7</text>
</g>
<!-- 1&#45;&gt;7 -->
<g id="edge5" class="edge">
<title>1&#45;&gt;7</title>
<path fill="none" stroke="#cf0000" d="M737.65,-21.86C620.67,-32.91 285.18,-64.59 165.26,-75.91"/>
<polygon fill="#cf0000" stroke="#cf0000" points="164.63,-72.46 155.01,-76.88 165.29,-79.43 164.63,-72.46"/>
</g>
<!-- 2 -->
<g id="node8" class="node">
<title>2</title>
<polygon fill="none" stroke="black" points="983,-69 857,-69 857,-33 983,-33 983,-69"/>
<text text-anchor="middle" x="920" y="-47.3" font-family="Times,serif" font-size="14.00">choice (0.5) 8 3</text>
</g>
<!-- 1&#45;&gt;2 -->
<g id="edge4" class="edge">
<title>1&#45;&gt;2</title>
<path fill="none" stroke="#35c9a2" d="M821.31,-27.72C829.42,-29.66 838.17,-31.74 846.98,-33.84"/>
<polygon fill="#35c9a2" stroke="#35c9a2" points="846.38,-37.29 856.92,-36.21 848,-30.48 846.38,-37.29"/>
</g>
<!-- 2&#45;&gt;8 -->
<g id="edge6" class="edge">
<title>2&#45;&gt;8</title>
<path fill="none" stroke="#35c9a2" d="M982.86,-69.03C994.83,-72.42 1007.29,-75.87 1019,-79 1055.94,-88.86 1098.13,-99.28 1128.84,-106.7"/>
<polygon fill="#35c9a2" stroke="#35c9a2" points="1128.24,-110.16 1138.79,-109.1 1129.89,-103.36 1128.24,-110.16"/>
</g>
<!-- 3 -->
<g id="node9" class="node">
<title>3</title>
<polygon fill="none" stroke="black" points="1103,-70 1019,-70 1019,-32 1103,-32 1103,-70"/>
<text text-anchor="middle" x="1061" y="-54.8" font-family="Times,serif" font-size="14.00">x := false</text>
<text text-anchor="middle" x="1061" y="-39.8" font-family="Times,serif" font-size="14.00">goto 8</text>
</g>
<!-- 2&#45;&gt;3 -->
<g id="edge7" class="edge">
<title>2&#45;&gt;3</title>
<path fill="none" stroke="#cf0000" d="M983.18,-51C991.62,-51 1000.2,-51 1008.42,-51"/>
<polygon fill="#cf0000" stroke="#cf0000" points="1008.61,-54.5 1018.61,-51 1008.61,-47.5 1008.61,-54.5"/>
</g>
<!-- 3&#45;&gt;8 -->
<g id="edge8" class="edge">
<title>3&#45;&gt;8</title>
<path fill="none" stroke="black" d="M1093.82,-70.09C1105.56,-77.14 1119.03,-85.22 1131.44,-92.67"/>
<polygon fill="black" stroke="black" points="1129.88,-95.81 1140.25,-97.95 1133.48,-89.81 1129.88,-95.81"/>
</g>
<!-- 4&#45;&gt;end -->
<g id="edge10" class="edge">
<title>4&#45;&gt;end</title>
<path fill="none" stroke="#cf0000" d="M379.11,-143C404.04,-143 429.28,-143 448.15,-143"/>
<polygon fill="#cf0000" stroke="#cf0000" points="448.2,-146.5 458.2,-143 448.2,-139.5 448.2,-146.5"/>
</g>
<!-- 9 -->
<g id="node11" class="node">
<title>9</title>
<polygon fill="#e9e9e9" stroke="#e9e9e9" points="545,-113 415,-113 415,-77 545,-77 545,-113"/>
<text text-anchor="middle" x="480" y="-91.3" font-family="Times,serif" font-size="14.00">br (pc = 1) 0 10</text>
</g>
<!-- 4&#45;&gt;9 -->
<g id="edge9" class="edge">
<title>4&#45;&gt;9</title>
<path fill="none" stroke="#35c9a2" d="M358.42,-124.99C373.59,-121.21 389.62,-117.23 404.86,-113.44"/>
<polygon fill="#35c9a2" stroke="#35c9a2" points="405.89,-116.79 414.75,-110.98 404.2,-110 405.89,-116.79"/>
</g>
<!-- 9&#45;&gt;0 -->
<g id="edge15" class="edge">
<title>9&#45;&gt;0</title>
<path fill="none" stroke="#35c9a2" d="M545.42,-111.56C560.16,-115.35 575.64,-119.33 589.72,-122.95"/>
<polygon fill="#35c9a2" stroke="#35c9a2" points="589.14,-126.41 599.7,-125.51 590.89,-119.63 589.14,-126.41"/>
</g>
<!-- 10 -->
<g id="node13" class="node">
<title>10</title>
<polygon fill="#e9e9e9" stroke="#e9e9e9" points="702,-90 581,-90 581,-54 702,-54 702,-90"/>
<text text-anchor="middle" x="641.5" y="-68.3" font-family="Times,serif" font-size="14.00">br (pc = 2) 1 5</text>
</g>
<!-- 9&#45;&gt;10 -->
<g id="edge16" class="edge">
<title>9&#45;&gt;10</title>
<path fill="none" stroke="#cf0000" d="M545.42,-85.71C553.71,-84.51 562.24,-83.28 570.62,-82.08"/>
<polygon fill="#cf0000" stroke="#cf0000" points="571.35,-85.51 580.75,-80.62 570.35,-78.58 571.35,-85.51"/>
</g>
<!-- 5 -->
<g id="node12" class="node">
<title>5</title>
<polygon fill="#e9e9e9" stroke="#e9e9e9" points="810.5,-90 748.5,-90 748.5,-54 810.5,-54 810.5,-90"/>
<text text-anchor="middle" x="779.5" y="-68.3" font-family="Times,serif" font-size="14.00">goto 5</text>
</g>
<!-- 5&#45;&gt;5 -->
<g id="edge11" class="edge">
<title>5&#45;&gt;5</title>
<path fill="none" stroke="black" d="M754.53,-90.15C750.69,-99.54 759.02,-108 779.5,-108 791.98,-108 799.95,-104.86 803.4,-100.28"/>
<polygon fill="black" stroke="black" points="806.9,-100.46 804.47,-90.15 799.94,-99.73 806.9,-100.46"/>
</g>
<!-- 10&#45;&gt;1 -->
<g id="edge17" class="edge">
<title>10&#45;&gt;1</title>
<path fill="none" stroke="#35c9a2" d="M688.16,-53.87C701.08,-48.74 715.21,-43.13 728.37,-37.9"/>
<polygon fill="#35c9a2" stroke="#35c9a2" points="729.75,-41.12 737.75,-34.18 727.17,-34.62 729.75,-41.12"/>
</g>
<!-- 10&#45;&gt;5 -->
<g id="edge18" class="edge">
<title>10&#45;&gt;5</title>
<path fill="none" stroke="#cf0000" d="M702.15,-72C714.39,-72 727,-72 738.35,-72"/>
<polygon fill="#cf0000" stroke="#cf0000" points="738.38,-75.5 748.38,-72 738.38,-68.5 738.38,-75.5"/>
</g>
</g>
</svg>
