<?xml version="1.0" encoding="UTF-8" standalone="no"?>
<!DOCTYPE svg PUBLIC "-//W3C//DTD SVG 1.1//EN"
 "http://www.w3.org/Graphics/SVG/1.1/DTD/svg11.dtd">
<!-- Generated by graphviz version 2.43.0 (0)
 -->
<!-- Title: %3 Pages: 1 -->
<svg width="682pt" height="185pt"
 viewBox="0.00 0.00 682.00 185.00" xmlns="http://www.w3.org/2000/svg" xmlns:xlink="http://www.w3.org/1999/xlink">
<g id="graph0" class="graph" transform="scale(1 1) rotate(0) translate(4 181)">
<title>%3</title>
<!-- start -->
<g id="node1" class="node">
<title>start</title>
<text text-anchor="middle" x="25.5" y="-130.3" font-family="Times,serif" font-size="14.00">start</text>
</g>
<!-- 4 -->
<g id="node2" class="node">
<title>4</title>
<polygon fill="#e9e9e9" stroke="#e9e9e9" points="155,-153 87,-153 87,-115 155,-115 155,-153"/>
<text text-anchor="middle" x="121" y="-137.8" font-family="Times,serif" font-size="14.00">pc := 0</text>
<text text-anchor="middle" x="121" y="-122.8" font-family="Times,serif" font-size="14.00">goto 2</text>
</g>
<!-- start&#45;&gt;4 -->
<g id="edge1" class="edge">
<title>start&#45;&gt;4</title>
<path fill="none" stroke="black" d="M51.07,-134C58.92,-134 67.87,-134 76.65,-134"/>
<polygon fill="black" stroke="black" points="76.81,-137.5 86.81,-134 76.81,-130.5 76.81,-137.5"/>
</g>
<!-- 2 -->
<g id="node7" class="node">
<title>2</title>
<polygon fill="#e9e9e9" stroke="#e9e9e9" points="312,-152 191,-152 191,-116 312,-116 312,-152"/>
<text text-anchor="middle" x="251.5" y="-130.3" font-family="Times,serif" font-size="14.00">br (pc = 0) 0 6</text>
</g>
<!-- 4&#45;&gt;2 -->
<g id="edge7" class="edge">
<title>4&#45;&gt;2</title>
<path fill="none" stroke="black" d="M155.09,-134C163.03,-134 171.81,-134 180.74,-134"/>
<polygon fill="black" stroke="black" points="180.84,-137.5 190.84,-134 180.84,-130.5 180.84,-137.5"/>
</g>
<!-- end -->
<g id="node3" class="node">
<title>end</title>
<text text-anchor="middle" x="652.5" y="-87.3" font-family="Times,serif" font-size="14.00">end</text>
</g>
<!-- 0 -->
<g id="node4" class="node">
<title>0</title>
<polygon fill="none" stroke="black" points="442.5,-153 374.5,-153 374.5,-115 442.5,-115 442.5,-153"/>
<text text-anchor="middle" x="408.5" y="-137.8" font-family="Times,serif" font-size="14.00">x := 42</text>
<text text-anchor="middle" x="408.5" y="-122.8" font-family="Times,serif" font-size="14.00">goto 5</text>
</g>
<!-- 5 -->
<g id="node5" class="node">
<title>5</title>
<polygon fill="#e9e9e9" stroke="#e9e9e9" points="584,-177 516,-177 516,-139 584,-139 584,-177"/>
<text text-anchor="middle" x="550" y="-161.8" font-family="Times,serif" font-size="14.00">pc := 1</text>
<text text-anchor="middle" x="550" y="-146.8" font-family="Times,serif" font-size="14.00">goto 2</text>
</g>
<!-- 0&#45;&gt;5 -->
<g id="edge2" class="edge">
<title>0&#45;&gt;5</title>
<path fill="none" stroke="black" d="M442.56,-139.69C461.45,-142.94 485.35,-147.05 505.72,-150.55"/>
<polygon fill="black" stroke="black" points="505.25,-154.02 515.69,-152.27 506.43,-147.13 505.25,-154.02"/>
</g>
<!-- 5&#45;&gt;2 -->
<g id="edge8" class="edge">
<title>5&#45;&gt;2</title>
<path fill="none" stroke="black" d="M515.72,-161.94C475.69,-165.93 406.56,-170.41 348,-162 336.89,-160.4 325.27,-157.82 314.11,-154.84"/>
<polygon fill="black" stroke="black" points="315.02,-151.46 304.45,-152.14 313.14,-158.2 315.02,-151.46"/>
</g>
<!-- 1 -->
<g id="node6" class="node">
<title>1</title>
<polygon fill="none" stroke="black" points="595,-110 505,-110 505,-72 595,-72 595,-110"/>
<text text-anchor="middle" x="550" y="-94.8" font-family="Times,serif" font-size="14.00">y := 11</text>
<text text-anchor="middle" x="550" y="-79.8" font-family="Times,serif" font-size="14.00">goto None</text>
</g>
<!-- 1&#45;&gt;end -->
<g id="edge3" class="edge">
<title>1&#45;&gt;end</title>
<path fill="none" stroke="black" d="M595.08,-91C603.74,-91 612.64,-91 620.74,-91"/>
<polygon fill="black" stroke="black" points="620.84,-94.5 630.84,-91 620.84,-87.5 620.84,-94.5"/>
</g>
<!-- 2&#45;&gt;0 -->
<g id="edge4" class="edge">
<title>2&#45;&gt;0</title>
<path fill="none" stroke="#35c9a2" d="M312.43,-134C329.62,-134 348.03,-134 364.02,-134"/>
<polygon fill="#35c9a2" stroke="#35c9a2" points="364.15,-137.5 374.15,-134 364.15,-130.5 364.15,-137.5"/>
</g>
<!-- 6 -->
<g id="node8" class="node">
<title>6</title>
<polygon fill="#e9e9e9" stroke="#e9e9e9" points="469,-97 348,-97 348,-61 469,-61 469,-97"/>
<text text-anchor="middle" x="408.5" y="-75.3" font-family="Times,serif" font-size="14.00">br (pc = 1) 1 3</text>
</g>
<!-- 2&#45;&gt;6 -->
<g id="edge5" class="edge">
<title>2&#45;&gt;6</title>
<path fill="none" stroke="#cf0000" d="M303.25,-115.99C317.17,-111.05 332.4,-105.65 346.81,-100.53"/>
<polygon fill="#cf0000" stroke="#cf0000" points="348.38,-103.69 356.63,-97.05 346.04,-97.1 348.38,-103.69"/>
</g>
<!-- 6&#45;&gt;1 -->
<g id="edge9" class="edge">
<title>6&#45;&gt;1</title>
<path fill="none" stroke="#35c9a2" d="M469.07,-84.12C477.59,-84.86 486.33,-85.61 494.75,-86.33"/>
<polygon fill="#35c9a2" stroke="#35c9a2" points="494.56,-89.83 504.83,-87.2 495.16,-82.86 494.56,-89.83"/>
</g>
<!-- 3 -->
<g id="node9" class="node">
<title>3</title>
<polygon fill="#e9e9e9" stroke="#e9e9e9" points="581,-36 519,-36 519,0 581,0 581,-36"/>
<text text-anchor="middle" x="550" y="-14.3" font-family="Times,serif" font-size="14.00">goto 3</text>
</g>
<!-- 6&#45;&gt;3 -->
<g id="edge10" class="edge">
<title>6&#45;&gt;3</title>
<path fill="none" stroke="#cf0000" d="M450.98,-60.86C469.58,-52.73 491.41,-43.18 509.75,-35.17"/>
<polygon fill="#cf0000" stroke="#cf0000" points="511.22,-38.34 518.98,-31.13 508.41,-31.93 511.22,-38.34"/>
</g>
<!-- 3&#45;&gt;3 -->
<g id="edge6" class="edge">
<title>3&#45;&gt;3</title>
<path fill="none" stroke="black" d="M531.55,-36.15C528.71,-45.54 534.86,-54 550,-54 559.23,-54 565.11,-50.86 567.66,-46.28"/>
<polygon fill="black" stroke="black" points="571.17,-46.39 568.45,-36.15 564.19,-45.85 571.17,-46.39"/>
</g>
</g>
</svg>
