<?xml version="1.0" encoding="UTF-8" standalone="no"?>
<!DOCTYPE svg PUBLIC "-//W3C//DTD SVG 1.1//EN"
 "http://www.w3.org/Graphics/SVG/1.1/DTD/svg11.dtd">
<!-- Generated by graphviz version 2.43.0 (0)
 -->
<!-- Title: %3 Pages: 1 -->
<svg width="368pt" height="46pt"
 viewBox="0.00 0.00 368.00 46.00" xmlns="http://www.w3.org/2000/svg" xmlns:xlink="http://www.w3.org/1999/xlink">
<g id="graph0" class="graph" transform="scale(1 1) rotate(0) translate(4 42)">
<title>%3</title>
<!-- start -->
<g id="node1" class="node">
<title>start</title>
<text text-anchor="middle" x="25.5" y="-15.3" font-family="Times,serif" font-size="14.00">start</text>
</g>
<!-- 0 -->
<g id="node2" class="node">
<title>0</title>
<polygon fill="none" stroke="black" points="155,-38 87,-38 87,0 155,0 155,-38"/>
<text text-anchor="middle" x="121" y="-22.8" font-family="Times,serif" font-size="14.00">x := 42</text>
<text text-anchor="middle" x="121" y="-7.8" font-family="Times,serif" font-size="14.00">goto 1</text>
</g>
<!-- start&#45;&gt;0 -->
<g id="edge1" class="edge">
<title>start&#45;&gt;0</title>
<path fill="none" stroke="black" d="M51.07,-19C58.92,-19 67.87,-19 76.65,-19"/>
<polygon fill="black" stroke="black" points="76.81,-22.5 86.81,-19 76.81,-15.5 76.81,-22.5"/>
</g>
<!-- 1 -->
<g id="node4" class="node">
<title>1</title>
<polygon fill="none" stroke="black" points="281,-38 191,-38 191,0 281,0 281,-38"/>
<text text-anchor="middle" x="236" y="-22.8" font-family="Times,serif" font-size="14.00">y := 11</text>
<text text-anchor="middle" x="236" y="-7.8" font-family="Times,serif" font-size="14.00">goto None</text>
</g>
<!-- 0&#45;&gt;1 -->
<g id="edge2" class="edge">
<title>0&#45;&gt;1</title>
<path fill="none" stroke="black" d="M155.29,-19C163.25,-19 171.94,-19 180.58,-19"/>
<polygon fill="black" stroke="black" points="180.63,-22.5 190.63,-19 180.63,-15.5 180.63,-22.5"/>
</g>
<!-- end -->
<g id="node3" class="node">
<title>end</title>
<text text-anchor="middle" x="338.5" y="-15.3" font-family="Times,serif" font-size="14.00">end</text>
</g>
<!-- 1&#45;&gt;end -->
<g id="edge3" class="edge">
<title>1&#45;&gt;end</title>
<path fill="none" stroke="black" d="M281.08,-19C289.74,-19 298.64,-19 306.74,-19"/>
<polygon fill="black" stroke="black" points="306.84,-22.5 316.84,-19 306.84,-15.5 306.84,-22.5"/>
</g>
</g>
</svg>
