<?xml version="1.0" encoding="UTF-8" standalone="no"?>
<!DOCTYPE svg PUBLIC "-//W3C//DTD SVG 1.1//EN"
 "http://www.w3.org/Graphics/SVG/1.1/DTD/svg11.dtd">
<!-- Generated by graphviz version 2.43.0 (0)
 -->
<!-- Title: %3 Pages: 1 -->
<svg width="921pt" height="153pt"
 viewBox="0.00 0.00 921.00 153.36" xmlns="http://www.w3.org/2000/svg" xmlns:xlink="http://www.w3.org/1999/xlink">
<g id="graph0" class="graph" transform="scale(1 1) rotate(0) translate(4 149.36)">
<title>%3</title>
<!-- start -->
<g id="node1" class="node">
<title>start</title>
<text text-anchor="middle" x="25.5" y="-67.16" font-family="Times,serif" font-size="14.00">start</text>
</g>
<!-- 0 -->
<g id="node2" class="node">
<title>0</title>
<path fill="none" stroke="black" d="M228,-88.86C228,-88.86 99,-88.86 99,-88.86 93,-88.86 87,-82.86 87,-76.86 87,-76.86 87,-64.86 87,-64.86 87,-58.86 93,-52.86 99,-52.86 99,-52.86 228,-52.86 228,-52.86 234,-52.86 240,-58.86 240,-64.86 240,-64.86 240,-76.86 240,-76.86 240,-82.86 234,-88.86 228,-88.86"/>
<text text-anchor="middle" x="163.5" y="-67.16" font-family="Times,serif" font-size="14.00">br (x &lt;= 3) 5 None</text>
</g>
<!-- start&#45;&gt;0 -->
<g id="edge1" class="edge">
<title>start&#45;&gt;0</title>
<path fill="none" stroke="black" d="M51.13,-70.86C58.66,-70.86 67.41,-70.86 76.64,-70.86"/>
<polygon fill="black" stroke="black" points="76.79,-74.36 86.79,-70.86 76.79,-67.36 76.79,-74.36"/>
</g>
<!-- end -->
<g id="node3" class="node">
<title>end</title>
<text text-anchor="middle" x="332.5" y="-130.16" font-family="Times,serif" font-size="14.00">end</text>
</g>
<!-- 0&#45;&gt;end -->
<g id="edge2" class="edge">
<title>0&#45;&gt;end</title>
<path fill="none" stroke="#cf0000" d="M212.36,-88.91C240.99,-99.71 276.5,-113.11 301.28,-122.46"/>
<polygon fill="#cf0000" stroke="#cf0000" points="300.27,-125.82 310.86,-126.07 302.74,-119.27 300.27,-125.82"/>
</g>
<!-- 5 -->
<g id="node4" class="node">
<title>5</title>
<path fill="none" stroke="black" d="M377,-65.86C377,-65.86 288,-65.86 288,-65.86 282,-65.86 276,-59.86 276,-53.86 276,-53.86 276,-41.86 276,-41.86 276,-35.86 282,-29.86 288,-29.86 288,-29.86 377,-29.86 377,-29.86 383,-29.86 389,-35.86 389,-41.86 389,-41.86 389,-53.86 389,-53.86 389,-59.86 383,-65.86 377,-65.86"/>
<text text-anchor="middle" x="332.5" y="-44.16" font-family="Times,serif" font-size="14.00">br (x = 0) 6 1</text>
</g>
<!-- 0&#45;&gt;5 -->
<g id="edge3" class="edge">
<title>0&#45;&gt;5</title>
<path fill="none" stroke="#35c9a2" d="M240.18,-60.44C248.65,-59.27 257.22,-58.09 265.56,-56.94"/>
<polygon fill="#35c9a2" stroke="#35c9a2" points="266.14,-60.39 275.57,-55.56 265.19,-53.46 266.14,-60.39"/>
</g>
<!-- 1 -->
<g id="node5" class="node">
<title>1</title>
<polygon fill="none" stroke="black" points="538,-120.86 425,-120.86 425,-84.86 538,-84.86 538,-120.86"/>
<text text-anchor="middle" x="481.5" y="-99.16" font-family="Times,serif" font-size="14.00">br (x = 0) 4 0</text>
</g>
<!-- 5&#45;&gt;1 -->
<g id="edge9" class="edge">
<title>5&#45;&gt;1</title>
<path fill="none" stroke="#cf0000" d="M381.63,-65.87C394.7,-70.76 409,-76.11 422.55,-81.18"/>
<polygon fill="#cf0000" stroke="#cf0000" points="421.67,-84.58 432.26,-84.81 424.12,-78.03 421.67,-84.58"/>
</g>
<!-- 6 -->
<g id="node9" class="node">
<title>6</title>
<polygon fill="none" stroke="black" points="526,-66.86 437,-66.86 437,-28.86 526,-28.86 526,-66.86"/>
<text text-anchor="middle" x="481.5" y="-51.66" font-family="Times,serif" font-size="14.00">x := x + 1</text>
<text text-anchor="middle" x="481.5" y="-36.66" font-family="Times,serif" font-size="14.00">goto 5</text>
</g>
<!-- 5&#45;&gt;6 -->
<g id="edge10" class="edge">
<title>5&#45;&gt;6</title>
<path fill="none" stroke="#35c9a2" d="M389.07,-41.29C401.4,-41.04 414.44,-41.05 426.69,-41.33"/>
<polygon fill="#35c9a2" stroke="#35c9a2" points="426.66,-44.83 436.76,-41.63 426.87,-37.83 426.66,-44.83"/>
</g>
<!-- 1&#45;&gt;0 -->
<g id="edge4" class="edge">
<title>1&#45;&gt;0</title>
<path fill="none" stroke="#cf0000" d="M424.73,-97.21C376.45,-92.32 305.85,-85.17 250.37,-79.55"/>
<polygon fill="#cf0000" stroke="#cf0000" points="250.49,-76.05 240.19,-78.52 249.79,-83.01 250.49,-76.05"/>
</g>
<!-- 4 -->
<g id="node6" class="node">
<title>4</title>
<polygon fill="none" stroke="black" points="663,-107.86 574,-107.86 574,-69.86 663,-69.86 663,-107.86"/>
<text text-anchor="middle" x="618.5" y="-92.66" font-family="Times,serif" font-size="14.00">x := x + 1</text>
<text text-anchor="middle" x="618.5" y="-77.66" font-family="Times,serif" font-size="14.00">goto 3</text>
</g>
<!-- 1&#45;&gt;4 -->
<g id="edge5" class="edge">
<title>1&#45;&gt;4</title>
<path fill="none" stroke="#35c9a2" d="M538.19,-97.08C546.66,-96.21 555.38,-95.3 563.81,-94.43"/>
<polygon fill="#35c9a2" stroke="#35c9a2" points="564.31,-97.89 573.9,-93.38 563.59,-90.93 564.31,-97.89"/>
</g>
<!-- 3 -->
<g id="node8" class="node">
<title>3</title>
<polygon fill="none" stroke="black" points="788,-93.86 699,-93.86 699,-55.86 788,-55.86 788,-93.86"/>
<text text-anchor="middle" x="743.5" y="-78.66" font-family="Times,serif" font-size="14.00">x := x + 2</text>
<text text-anchor="middle" x="743.5" y="-63.66" font-family="Times,serif" font-size="14.00">goto 2</text>
</g>
<!-- 4&#45;&gt;3 -->
<g id="edge8" class="edge">
<title>4&#45;&gt;3</title>
<path fill="none" stroke="black" d="M663.21,-83.88C671.55,-82.93 680.36,-81.93 688.97,-80.95"/>
<polygon fill="black" stroke="black" points="689.39,-84.43 698.93,-79.82 688.6,-77.47 689.39,-84.43"/>
</g>
<!-- 2 -->
<g id="node7" class="node">
<title>2</title>
<polygon fill="none" stroke="black" points="913,-42.86 824,-42.86 824,-4.86 913,-4.86 913,-42.86"/>
<text text-anchor="middle" x="868.5" y="-27.66" font-family="Times,serif" font-size="14.00">x := x + 3</text>
<text text-anchor="middle" x="868.5" y="-12.66" font-family="Times,serif" font-size="14.00">goto 0</text>
</g>
<!-- 2&#45;&gt;0 -->
<g id="edge6" class="edge">
<title>2&#45;&gt;0</title>
<path fill="none" stroke="black" d="M823.71,-17.33C774.25,-10.53 691.28,-0.86 619.5,-0.86 480.5,-0.86 480.5,-0.86 480.5,-0.86 389.18,-0.86 364.26,2.58 276,-20.86 252,-27.23 226.63,-38.23 206.16,-48.3"/>
<polygon fill="black" stroke="black" points="204.49,-45.22 197.13,-52.83 207.64,-51.47 204.49,-45.22"/>
</g>
<!-- 3&#45;&gt;2 -->
<g id="edge7" class="edge">
<title>3&#45;&gt;2</title>
<path fill="none" stroke="black" d="M788.21,-56.73C796.73,-53.2 805.75,-49.46 814.53,-45.82"/>
<polygon fill="black" stroke="black" points="816.03,-48.99 823.93,-41.92 813.35,-42.52 816.03,-48.99"/>
</g>
<!-- 6&#45;&gt;5 -->
<g id="edge11" class="edge">
<title>6&#45;&gt;5</title>
<path fill="none" stroke="black" d="M436.76,-54.09C424.95,-54.52 411.91,-54.69 399.18,-54.57"/>
<polygon fill="black" stroke="black" points="399.12,-51.07 389.07,-54.43 399.02,-58.07 399.12,-51.07"/>
</g>
</g>
</svg>
